<mxfile host="app.diagrams.net" agent="Mozilla/5.0 (Windows NT 10.0; Win64; x64) AppleWebKit/537.36 (KHTML, like Gecko) Chrome/132.0.0.0 Safari/537.36" version="26.0.11">
  <diagram name="Page-1" id="03018318-947c-dd8e-b7a3-06fadd420f32">
    <mxGraphModel dx="3354" dy="1258" grid="1" gridSize="10" guides="1" tooltips="1" connect="1" arrows="1" fold="1" page="1" pageScale="1" pageWidth="1100" pageHeight="850" background="none" math="0" shadow="0">
      <root>
        <mxCell id="0" />
        <mxCell id="1" parent="0" />
        <mxCell id="677b7b8949515195-1" value="" style="whiteSpace=wrap;html=1;rounded=0;shadow=0;labelBackgroundColor=none;strokeColor=#000000;strokeWidth=1;fillColor=none;fontFamily=Verdana;fontSize=12;fontColor=#000000;align=center;comic=1;" parent="1" vertex="1">
          <mxGeometry x="20" y="40" width="1060" height="540" as="geometry" />
        </mxCell>
        <mxCell id="q4BZEvWAXVgxHDnkbYNj-4" value="" style="shape=table;startSize=0;container=1;collapsible=0;childLayout=tableLayout;strokeColor=default;fontSize=16;fontStyle=1" parent="1" vertex="1">
          <mxGeometry x="30" y="134" width="1010" height="297" as="geometry" />
        </mxCell>
        <mxCell id="q4BZEvWAXVgxHDnkbYNj-5" value="" style="shape=tableRow;horizontal=0;startSize=0;swimlaneHead=0;swimlaneBody=0;strokeColor=inherit;top=0;left=0;bottom=0;right=0;collapsible=0;dropTarget=0;fillColor=none;points=[[0,0.5],[1,0.5]];portConstraint=eastwest;fontSize=16;" parent="q4BZEvWAXVgxHDnkbYNj-4" vertex="1">
          <mxGeometry width="1010" height="33" as="geometry" />
        </mxCell>
        <mxCell id="q4BZEvWAXVgxHDnkbYNj-6" value="&lt;b&gt;Model&lt;/b&gt;" style="shape=partialRectangle;html=1;whiteSpace=wrap;connectable=0;strokeColor=#6c8ebf;overflow=hidden;fillColor=#dae8fc;top=0;left=0;bottom=0;right=0;pointerEvents=1;fontSize=16;align=left;" parent="q4BZEvWAXVgxHDnkbYNj-5" vertex="1">
          <mxGeometry width="255" height="33" as="geometry">
            <mxRectangle width="255" height="33" as="alternateBounds" />
          </mxGeometry>
        </mxCell>
        <mxCell id="q4BZEvWAXVgxHDnkbYNj-29" value="&lt;b&gt;Type&lt;/b&gt;" style="shape=partialRectangle;html=1;whiteSpace=wrap;connectable=0;strokeColor=#6c8ebf;overflow=hidden;fillColor=#dae8fc;top=0;left=0;bottom=0;right=0;pointerEvents=1;fontSize=16;align=left;" parent="q4BZEvWAXVgxHDnkbYNj-5" vertex="1">
          <mxGeometry x="255" width="253" height="33" as="geometry">
            <mxRectangle width="253" height="33" as="alternateBounds" />
          </mxGeometry>
        </mxCell>
        <mxCell id="q4BZEvWAXVgxHDnkbYNj-8" value="&lt;b&gt;Status&lt;/b&gt;" style="shape=partialRectangle;html=1;whiteSpace=wrap;connectable=0;strokeColor=#6c8ebf;overflow=hidden;fillColor=#dae8fc;top=0;left=0;bottom=0;right=0;pointerEvents=1;fontSize=16;align=left;" parent="q4BZEvWAXVgxHDnkbYNj-5" vertex="1">
          <mxGeometry x="508" width="251" height="33" as="geometry">
            <mxRectangle width="251" height="33" as="alternateBounds" />
          </mxGeometry>
        </mxCell>
        <mxCell id="q4BZEvWAXVgxHDnkbYNj-20" style="shape=partialRectangle;html=1;whiteSpace=wrap;connectable=0;strokeColor=#6c8ebf;overflow=hidden;fillColor=#dae8fc;top=0;left=0;bottom=0;right=0;pointerEvents=1;fontSize=16;align=left;" parent="q4BZEvWAXVgxHDnkbYNj-5" vertex="1">
          <mxGeometry x="759" width="251" height="33" as="geometry">
            <mxRectangle width="251" height="33" as="alternateBounds" />
          </mxGeometry>
        </mxCell>
        <mxCell id="VPphKP7PUV7bJlCxoTnw-1" style="shape=tableRow;horizontal=0;startSize=0;swimlaneHead=0;swimlaneBody=0;strokeColor=inherit;top=0;left=0;bottom=0;right=0;collapsible=0;dropTarget=0;fillColor=none;points=[[0,0.5],[1,0.5]];portConstraint=eastwest;fontSize=16;" vertex="1" parent="q4BZEvWAXVgxHDnkbYNj-4">
          <mxGeometry y="33" width="1010" height="44" as="geometry" />
        </mxCell>
        <mxCell id="VPphKP7PUV7bJlCxoTnw-2" value="CR-123" style="shape=partialRectangle;html=1;whiteSpace=wrap;connectable=0;strokeColor=inherit;overflow=hidden;fillColor=none;top=0;left=0;bottom=0;right=0;pointerEvents=1;fontSize=16;align=left;" vertex="1" parent="VPphKP7PUV7bJlCxoTnw-1">
          <mxGeometry width="255" height="44" as="geometry">
            <mxRectangle width="255" height="44" as="alternateBounds" />
          </mxGeometry>
        </mxCell>
        <mxCell id="VPphKP7PUV7bJlCxoTnw-3" value="Card Reader" style="shape=partialRectangle;html=1;whiteSpace=wrap;connectable=0;strokeColor=inherit;overflow=hidden;fillColor=none;top=0;left=0;bottom=0;right=0;pointerEvents=1;fontSize=16;align=left;" vertex="1" parent="VPphKP7PUV7bJlCxoTnw-1">
          <mxGeometry x="255" width="253" height="44" as="geometry">
            <mxRectangle width="253" height="44" as="alternateBounds" />
          </mxGeometry>
        </mxCell>
        <mxCell id="VPphKP7PUV7bJlCxoTnw-4" value="&lt;span style=&quot;color: rgb(255, 102, 102);&quot;&gt;Repair&lt;/span&gt;" style="shape=partialRectangle;html=1;whiteSpace=wrap;connectable=0;strokeColor=inherit;overflow=hidden;fillColor=none;top=0;left=0;bottom=0;right=0;pointerEvents=1;fontSize=16;align=left;" vertex="1" parent="VPphKP7PUV7bJlCxoTnw-1">
          <mxGeometry x="508" width="251" height="44" as="geometry">
            <mxRectangle width="251" height="44" as="alternateBounds" />
          </mxGeometry>
        </mxCell>
        <mxCell id="VPphKP7PUV7bJlCxoTnw-5" value="&lt;span&gt;&lt;font style=&quot;color: light-dark(rgb(126, 166, 224), rgb(51, 153, 255));&quot;&gt;Details&lt;/font&gt;&lt;/span&gt;" style="shape=partialRectangle;html=1;whiteSpace=wrap;connectable=0;strokeColor=inherit;overflow=hidden;fillColor=none;top=0;left=0;bottom=0;right=0;pointerEvents=1;fontSize=16;align=left;" vertex="1" parent="VPphKP7PUV7bJlCxoTnw-1">
          <mxGeometry x="759" width="251" height="44" as="geometry">
            <mxRectangle width="251" height="44" as="alternateBounds" />
          </mxGeometry>
        </mxCell>
        <mxCell id="VPphKP7PUV7bJlCxoTnw-6" style="shape=tableRow;horizontal=0;startSize=0;swimlaneHead=0;swimlaneBody=0;strokeColor=inherit;top=0;left=0;bottom=0;right=0;collapsible=0;dropTarget=0;fillColor=none;points=[[0,0.5],[1,0.5]];portConstraint=eastwest;fontSize=16;" vertex="1" parent="q4BZEvWAXVgxHDnkbYNj-4">
          <mxGeometry y="77" width="1010" height="44" as="geometry" />
        </mxCell>
        <mxCell id="VPphKP7PUV7bJlCxoTnw-7" value="G83-6105" style="shape=partialRectangle;html=1;whiteSpace=wrap;connectable=0;strokeColor=inherit;overflow=hidden;fillColor=none;top=0;left=0;bottom=0;right=0;pointerEvents=1;fontSize=16;align=left;" vertex="1" parent="VPphKP7PUV7bJlCxoTnw-6">
          <mxGeometry width="255" height="44" as="geometry">
            <mxRectangle width="255" height="44" as="alternateBounds" />
          </mxGeometry>
        </mxCell>
        <mxCell id="VPphKP7PUV7bJlCxoTnw-8" value="Keyboard" style="shape=partialRectangle;html=1;whiteSpace=wrap;connectable=0;strokeColor=inherit;overflow=hidden;fillColor=none;top=0;left=0;bottom=0;right=0;pointerEvents=1;fontSize=16;align=left;" vertex="1" parent="VPphKP7PUV7bJlCxoTnw-6">
          <mxGeometry x="255" width="253" height="44" as="geometry">
            <mxRectangle width="253" height="44" as="alternateBounds" />
          </mxGeometry>
        </mxCell>
        <mxCell id="VPphKP7PUV7bJlCxoTnw-9" value="In Use" style="shape=partialRectangle;html=1;whiteSpace=wrap;connectable=0;strokeColor=inherit;overflow=hidden;fillColor=none;top=0;left=0;bottom=0;right=0;pointerEvents=1;fontSize=16;align=left;" vertex="1" parent="VPphKP7PUV7bJlCxoTnw-6">
          <mxGeometry x="508" width="251" height="44" as="geometry">
            <mxRectangle width="251" height="44" as="alternateBounds" />
          </mxGeometry>
        </mxCell>
        <mxCell id="VPphKP7PUV7bJlCxoTnw-10" value="&lt;span&gt;&lt;font style=&quot;color: light-dark(rgb(126, 166, 224), rgb(51, 153, 255));&quot;&gt;Details&lt;/font&gt;&lt;/span&gt;" style="shape=partialRectangle;html=1;whiteSpace=wrap;connectable=0;strokeColor=inherit;overflow=hidden;fillColor=none;top=0;left=0;bottom=0;right=0;pointerEvents=1;fontSize=16;align=left;" vertex="1" parent="VPphKP7PUV7bJlCxoTnw-6">
          <mxGeometry x="759" width="251" height="44" as="geometry">
            <mxRectangle width="251" height="44" as="alternateBounds" />
          </mxGeometry>
        </mxCell>
        <mxCell id="VPphKP7PUV7bJlCxoTnw-16" style="shape=tableRow;horizontal=0;startSize=0;swimlaneHead=0;swimlaneBody=0;strokeColor=inherit;top=0;left=0;bottom=0;right=0;collapsible=0;dropTarget=0;fillColor=none;points=[[0,0.5],[1,0.5]];portConstraint=eastwest;fontSize=16;" vertex="1" parent="q4BZEvWAXVgxHDnkbYNj-4">
          <mxGeometry y="121" width="1010" height="44" as="geometry" />
        </mxCell>
        <mxCell id="VPphKP7PUV7bJlCxoTnw-17" value="GZ-2" style="shape=partialRectangle;html=1;whiteSpace=wrap;connectable=0;strokeColor=inherit;overflow=hidden;fillColor=none;top=0;left=0;bottom=0;right=0;pointerEvents=1;fontSize=16;align=left;" vertex="1" parent="VPphKP7PUV7bJlCxoTnw-16">
          <mxGeometry width="255" height="44" as="geometry">
            <mxRectangle width="255" height="44" as="alternateBounds" />
          </mxGeometry>
        </mxCell>
        <mxCell id="VPphKP7PUV7bJlCxoTnw-18" value="Stationary Phone" style="shape=partialRectangle;html=1;whiteSpace=wrap;connectable=0;strokeColor=inherit;overflow=hidden;fillColor=none;top=0;left=0;bottom=0;right=0;pointerEvents=1;fontSize=16;align=left;" vertex="1" parent="VPphKP7PUV7bJlCxoTnw-16">
          <mxGeometry x="255" width="253" height="44" as="geometry">
            <mxRectangle width="253" height="44" as="alternateBounds" />
          </mxGeometry>
        </mxCell>
        <mxCell id="VPphKP7PUV7bJlCxoTnw-19" value="In Use" style="shape=partialRectangle;html=1;whiteSpace=wrap;connectable=0;strokeColor=inherit;overflow=hidden;fillColor=none;top=0;left=0;bottom=0;right=0;pointerEvents=1;fontSize=16;align=left;" vertex="1" parent="VPphKP7PUV7bJlCxoTnw-16">
          <mxGeometry x="508" width="251" height="44" as="geometry">
            <mxRectangle width="251" height="44" as="alternateBounds" />
          </mxGeometry>
        </mxCell>
        <mxCell id="VPphKP7PUV7bJlCxoTnw-20" value="&lt;span&gt;&lt;font style=&quot;color: light-dark(rgb(126, 166, 224), rgb(51, 153, 255));&quot;&gt;Details&lt;/font&gt;&lt;/span&gt;" style="shape=partialRectangle;html=1;whiteSpace=wrap;connectable=0;strokeColor=inherit;overflow=hidden;fillColor=none;top=0;left=0;bottom=0;right=0;pointerEvents=1;fontSize=16;align=left;" vertex="1" parent="VPphKP7PUV7bJlCxoTnw-16">
          <mxGeometry x="759" width="251" height="44" as="geometry">
            <mxRectangle width="251" height="44" as="alternateBounds" />
          </mxGeometry>
        </mxCell>
        <mxCell id="VPphKP7PUV7bJlCxoTnw-21" style="shape=tableRow;horizontal=0;startSize=0;swimlaneHead=0;swimlaneBody=0;strokeColor=inherit;top=0;left=0;bottom=0;right=0;collapsible=0;dropTarget=0;fillColor=none;points=[[0,0.5],[1,0.5]];portConstraint=eastwest;fontSize=16;" vertex="1" parent="q4BZEvWAXVgxHDnkbYNj-4">
          <mxGeometry y="165" width="1010" height="44" as="geometry" />
        </mxCell>
        <mxCell id="VPphKP7PUV7bJlCxoTnw-22" value="MSBOM" style="shape=partialRectangle;html=1;whiteSpace=wrap;connectable=0;strokeColor=inherit;overflow=hidden;fillColor=none;top=0;left=0;bottom=0;right=0;pointerEvents=1;fontSize=16;align=left;" vertex="1" parent="VPphKP7PUV7bJlCxoTnw-21">
          <mxGeometry width="255" height="44" as="geometry">
            <mxRectangle width="255" height="44" as="alternateBounds" />
          </mxGeometry>
        </mxCell>
        <mxCell id="VPphKP7PUV7bJlCxoTnw-23" value="Mouse" style="shape=partialRectangle;html=1;whiteSpace=wrap;connectable=0;strokeColor=inherit;overflow=hidden;fillColor=none;top=0;left=0;bottom=0;right=0;pointerEvents=1;fontSize=16;align=left;" vertex="1" parent="VPphKP7PUV7bJlCxoTnw-21">
          <mxGeometry x="255" width="253" height="44" as="geometry">
            <mxRectangle width="253" height="44" as="alternateBounds" />
          </mxGeometry>
        </mxCell>
        <mxCell id="VPphKP7PUV7bJlCxoTnw-24" value="In Use" style="shape=partialRectangle;html=1;whiteSpace=wrap;connectable=0;strokeColor=inherit;overflow=hidden;fillColor=none;top=0;left=0;bottom=0;right=0;pointerEvents=1;fontSize=16;align=left;" vertex="1" parent="VPphKP7PUV7bJlCxoTnw-21">
          <mxGeometry x="508" width="251" height="44" as="geometry">
            <mxRectangle width="251" height="44" as="alternateBounds" />
          </mxGeometry>
        </mxCell>
        <mxCell id="VPphKP7PUV7bJlCxoTnw-25" value="&lt;span&gt;&lt;font style=&quot;color: light-dark(rgb(126, 166, 224), rgb(51, 153, 255));&quot;&gt;Details&lt;/font&gt;&lt;/span&gt;" style="shape=partialRectangle;html=1;whiteSpace=wrap;connectable=0;strokeColor=inherit;overflow=hidden;fillColor=none;top=0;left=0;bottom=0;right=0;pointerEvents=1;fontSize=16;align=left;" vertex="1" parent="VPphKP7PUV7bJlCxoTnw-21">
          <mxGeometry x="759" width="251" height="44" as="geometry">
            <mxRectangle width="251" height="44" as="alternateBounds" />
          </mxGeometry>
        </mxCell>
        <mxCell id="q4BZEvWAXVgxHDnkbYNj-9" value="" style="shape=tableRow;horizontal=0;startSize=0;swimlaneHead=0;swimlaneBody=0;strokeColor=inherit;top=0;left=0;bottom=0;right=0;collapsible=0;dropTarget=0;fillColor=none;points=[[0,0.5],[1,0.5]];portConstraint=eastwest;fontSize=16;" parent="q4BZEvWAXVgxHDnkbYNj-4" vertex="1">
          <mxGeometry y="209" width="1010" height="44" as="geometry" />
        </mxCell>
        <mxCell id="q4BZEvWAXVgxHDnkbYNj-10" value="SE2422HX" style="shape=partialRectangle;html=1;whiteSpace=wrap;connectable=0;strokeColor=inherit;overflow=hidden;fillColor=none;top=0;left=0;bottom=0;right=0;pointerEvents=1;fontSize=16;align=left;" parent="q4BZEvWAXVgxHDnkbYNj-9" vertex="1">
          <mxGeometry width="255" height="44" as="geometry">
            <mxRectangle width="255" height="44" as="alternateBounds" />
          </mxGeometry>
        </mxCell>
        <mxCell id="q4BZEvWAXVgxHDnkbYNj-30" value="Monitor" style="shape=partialRectangle;html=1;whiteSpace=wrap;connectable=0;strokeColor=inherit;overflow=hidden;fillColor=none;top=0;left=0;bottom=0;right=0;pointerEvents=1;fontSize=16;align=left;" parent="q4BZEvWAXVgxHDnkbYNj-9" vertex="1">
          <mxGeometry x="255" width="253" height="44" as="geometry">
            <mxRectangle width="253" height="44" as="alternateBounds" />
          </mxGeometry>
        </mxCell>
        <mxCell id="q4BZEvWAXVgxHDnkbYNj-12" value="In Use" style="shape=partialRectangle;html=1;whiteSpace=wrap;connectable=0;strokeColor=inherit;overflow=hidden;fillColor=none;top=0;left=0;bottom=0;right=0;pointerEvents=1;fontSize=16;align=left;" parent="q4BZEvWAXVgxHDnkbYNj-9" vertex="1">
          <mxGeometry x="508" width="251" height="44" as="geometry">
            <mxRectangle width="251" height="44" as="alternateBounds" />
          </mxGeometry>
        </mxCell>
        <mxCell id="q4BZEvWAXVgxHDnkbYNj-21" value="&lt;font style=&quot;color: light-dark(rgb(126, 166, 224), rgb(51, 153, 255));&quot;&gt;Details&lt;/font&gt;" style="shape=partialRectangle;html=1;whiteSpace=wrap;connectable=0;strokeColor=inherit;overflow=hidden;fillColor=none;top=0;left=0;bottom=0;right=0;pointerEvents=1;fontSize=16;align=left;" parent="q4BZEvWAXVgxHDnkbYNj-9" vertex="1">
          <mxGeometry x="759" width="251" height="44" as="geometry">
            <mxRectangle width="251" height="44" as="alternateBounds" />
          </mxGeometry>
        </mxCell>
        <mxCell id="ajDolaFg_bnpmEUSDBXx-9" style="shape=tableRow;horizontal=0;startSize=0;swimlaneHead=0;swimlaneBody=0;strokeColor=inherit;top=0;left=0;bottom=0;right=0;collapsible=0;dropTarget=0;fillColor=none;points=[[0,0.5],[1,0.5]];portConstraint=eastwest;fontSize=16;" parent="q4BZEvWAXVgxHDnkbYNj-4" vertex="1">
          <mxGeometry y="253" width="1010" height="44" as="geometry" />
        </mxCell>
        <mxCell id="ajDolaFg_bnpmEUSDBXx-11" value="Wacom K100986" style="shape=partialRectangle;html=1;whiteSpace=wrap;connectable=0;strokeColor=inherit;overflow=hidden;fillColor=none;top=0;left=0;bottom=0;right=0;pointerEvents=1;fontSize=16;align=left;" parent="ajDolaFg_bnpmEUSDBXx-9" vertex="1">
          <mxGeometry width="255" height="44" as="geometry">
            <mxRectangle width="255" height="44" as="alternateBounds" />
          </mxGeometry>
        </mxCell>
        <mxCell id="ajDolaFg_bnpmEUSDBXx-12" value="Graphic Display" style="shape=partialRectangle;html=1;whiteSpace=wrap;connectable=0;strokeColor=inherit;overflow=hidden;fillColor=none;top=0;left=0;bottom=0;right=0;pointerEvents=1;fontSize=16;align=left;" parent="ajDolaFg_bnpmEUSDBXx-9" vertex="1">
          <mxGeometry x="255" width="253" height="44" as="geometry">
            <mxRectangle width="253" height="44" as="alternateBounds" />
          </mxGeometry>
        </mxCell>
        <mxCell id="ajDolaFg_bnpmEUSDBXx-14" value="In Use" style="shape=partialRectangle;html=1;whiteSpace=wrap;connectable=0;strokeColor=inherit;overflow=hidden;fillColor=none;top=0;left=0;bottom=0;right=0;pointerEvents=1;fontSize=16;align=left;" parent="ajDolaFg_bnpmEUSDBXx-9" vertex="1">
          <mxGeometry x="508" width="251" height="44" as="geometry">
            <mxRectangle width="251" height="44" as="alternateBounds" />
          </mxGeometry>
        </mxCell>
        <mxCell id="ajDolaFg_bnpmEUSDBXx-16" value="&lt;font style=&quot;color: light-dark(rgb(0, 0, 0), rgb(51, 153, 255));&quot;&gt;Details&lt;/font&gt;" style="shape=partialRectangle;html=1;whiteSpace=wrap;connectable=0;strokeColor=inherit;overflow=hidden;fillColor=none;top=0;left=0;bottom=0;right=0;pointerEvents=1;fontSize=16;align=left;" parent="ajDolaFg_bnpmEUSDBXx-9" vertex="1">
          <mxGeometry x="759" width="251" height="44" as="geometry">
            <mxRectangle width="251" height="44" as="alternateBounds" />
          </mxGeometry>
        </mxCell>
        <mxCell id="q4BZEvWAXVgxHDnkbYNj-132" value="" style="verticalLabelPosition=bottom;shadow=0;dashed=0;align=center;html=1;verticalAlign=top;strokeWidth=1;shape=mxgraph.mockup.navigation.scrollBar;strokeColor=#999999;barPos=99.756;fillColor2=#99ddff;strokeColor2=none;direction=north;" parent="1" vertex="1">
          <mxGeometry x="1050" y="60" width="20" height="510" as="geometry" />
        </mxCell>
        <mxCell id="zX-MKMj06BqSPDNbv460-1" value="&lt;font style=&quot;font-size: 18px;&quot;&gt;companyitassets/employee/23/assets&lt;/font&gt;" style="html=1;strokeWidth=1;shadow=0;dashed=0;shape=mxgraph.ios7ui.url;fillColor=#e0e0e0;strokeColor=#c0c0c0;buttonText=;strokeColor2=#222222;fontColor=#222222;fontSize=8;spacingTop=2;align=center;whiteSpace=wrap;" parent="1" vertex="1">
          <mxGeometry x="20" width="1050" height="32.5" as="geometry" />
        </mxCell>
        <mxCell id="ajDolaFg_bnpmEUSDBXx-25" value="&lt;font style=&quot;font-size: 20px;&quot;&gt;Assets&lt;/font&gt;" style="text;strokeColor=#6c8ebf;fillColor=#dae8fc;html=1;fontSize=24;fontStyle=1;verticalAlign=middle;align=left;" parent="1" vertex="1">
          <mxGeometry x="30" y="94" width="1010" height="40" as="geometry" />
        </mxCell>
        <mxCell id="ajDolaFg_bnpmEUSDBXx-26" value="&lt;font style=&quot;font-size: 20px;&quot;&gt;Software Licenses&lt;/font&gt;" style="text;strokeColor=#6c8ebf;fillColor=#dae8fc;html=1;fontSize=24;fontStyle=1;verticalAlign=middle;align=left;" parent="1" vertex="1">
          <mxGeometry x="30" y="453" width="1010" height="40" as="geometry" />
        </mxCell>
        <mxCell id="ajDolaFg_bnpmEUSDBXx-27" value="" style="shape=table;startSize=0;container=1;collapsible=0;childLayout=tableLayout;strokeColor=default;fontSize=16;fontStyle=1" parent="1" vertex="1">
          <mxGeometry x="30" y="493" width="1010" height="77" as="geometry" />
        </mxCell>
        <mxCell id="ajDolaFg_bnpmEUSDBXx-28" value="" style="shape=tableRow;horizontal=0;startSize=0;swimlaneHead=0;swimlaneBody=0;strokeColor=inherit;top=0;left=0;bottom=0;right=0;collapsible=0;dropTarget=0;fillColor=none;points=[[0,0.5],[1,0.5]];portConstraint=eastwest;fontSize=16;" parent="ajDolaFg_bnpmEUSDBXx-27" vertex="1">
          <mxGeometry width="1010" height="33" as="geometry" />
        </mxCell>
        <mxCell id="ajDolaFg_bnpmEUSDBXx-29" value="&lt;b&gt;License&lt;/b&gt;" style="shape=partialRectangle;html=1;whiteSpace=wrap;connectable=0;strokeColor=#6c8ebf;overflow=hidden;fillColor=#dae8fc;top=0;left=0;bottom=0;right=0;pointerEvents=1;fontSize=16;align=left;" parent="ajDolaFg_bnpmEUSDBXx-28" vertex="1">
          <mxGeometry width="255" height="33" as="geometry">
            <mxRectangle width="255" height="33" as="alternateBounds" />
          </mxGeometry>
        </mxCell>
        <mxCell id="ajDolaFg_bnpmEUSDBXx-30" value="&lt;b&gt;Version&lt;/b&gt;" style="shape=partialRectangle;html=1;whiteSpace=wrap;connectable=0;strokeColor=#6c8ebf;overflow=hidden;fillColor=#dae8fc;top=0;left=0;bottom=0;right=0;pointerEvents=1;fontSize=16;align=left;" parent="ajDolaFg_bnpmEUSDBXx-28" vertex="1">
          <mxGeometry x="255" width="253" height="33" as="geometry">
            <mxRectangle width="253" height="33" as="alternateBounds" />
          </mxGeometry>
        </mxCell>
        <mxCell id="ajDolaFg_bnpmEUSDBXx-31" value="&lt;b&gt;Status&lt;/b&gt;" style="shape=partialRectangle;html=1;whiteSpace=wrap;connectable=0;strokeColor=#6c8ebf;overflow=hidden;fillColor=#dae8fc;top=0;left=0;bottom=0;right=0;pointerEvents=1;fontSize=16;align=left;" parent="ajDolaFg_bnpmEUSDBXx-28" vertex="1">
          <mxGeometry x="508" width="251" height="33" as="geometry">
            <mxRectangle width="251" height="33" as="alternateBounds" />
          </mxGeometry>
        </mxCell>
        <mxCell id="ajDolaFg_bnpmEUSDBXx-32" style="shape=partialRectangle;html=1;whiteSpace=wrap;connectable=0;strokeColor=#6c8ebf;overflow=hidden;fillColor=#dae8fc;top=0;left=0;bottom=0;right=0;pointerEvents=1;fontSize=16;align=left;" parent="ajDolaFg_bnpmEUSDBXx-28" vertex="1">
          <mxGeometry x="759" width="251" height="33" as="geometry">
            <mxRectangle width="251" height="33" as="alternateBounds" />
          </mxGeometry>
        </mxCell>
        <mxCell id="ajDolaFg_bnpmEUSDBXx-33" value="" style="shape=tableRow;horizontal=0;startSize=0;swimlaneHead=0;swimlaneBody=0;strokeColor=inherit;top=0;left=0;bottom=0;right=0;collapsible=0;dropTarget=0;fillColor=none;points=[[0,0.5],[1,0.5]];portConstraint=eastwest;fontSize=16;" parent="ajDolaFg_bnpmEUSDBXx-27" vertex="1">
          <mxGeometry y="33" width="1010" height="44" as="geometry" />
        </mxCell>
        <mxCell id="ajDolaFg_bnpmEUSDBXx-34" value="Zbrush" style="shape=partialRectangle;html=1;whiteSpace=wrap;connectable=0;strokeColor=inherit;overflow=hidden;fillColor=none;top=0;left=0;bottom=0;right=0;pointerEvents=1;fontSize=16;align=left;" parent="ajDolaFg_bnpmEUSDBXx-33" vertex="1">
          <mxGeometry width="255" height="44" as="geometry">
            <mxRectangle width="255" height="44" as="alternateBounds" />
          </mxGeometry>
        </mxCell>
        <mxCell id="ajDolaFg_bnpmEUSDBXx-35" value="2025.1.1" style="shape=partialRectangle;html=1;whiteSpace=wrap;connectable=0;strokeColor=inherit;overflow=hidden;fillColor=none;top=0;left=0;bottom=0;right=0;pointerEvents=1;fontSize=16;align=left;" parent="ajDolaFg_bnpmEUSDBXx-33" vertex="1">
          <mxGeometry x="255" width="253" height="44" as="geometry">
            <mxRectangle width="253" height="44" as="alternateBounds" />
          </mxGeometry>
        </mxCell>
        <mxCell id="ajDolaFg_bnpmEUSDBXx-36" value="In Use" style="shape=partialRectangle;html=1;whiteSpace=wrap;connectable=0;strokeColor=inherit;overflow=hidden;fillColor=none;top=0;left=0;bottom=0;right=0;pointerEvents=1;fontSize=16;align=left;" parent="ajDolaFg_bnpmEUSDBXx-33" vertex="1">
          <mxGeometry x="508" width="251" height="44" as="geometry">
            <mxRectangle width="251" height="44" as="alternateBounds" />
          </mxGeometry>
        </mxCell>
        <mxCell id="ajDolaFg_bnpmEUSDBXx-37" value="&lt;font style=&quot;color: light-dark(rgb(126, 166, 224), rgb(51, 153, 255));&quot;&gt;Details&lt;/font&gt;" style="shape=partialRectangle;html=1;whiteSpace=wrap;connectable=0;strokeColor=inherit;overflow=hidden;fillColor=none;top=0;left=0;bottom=0;right=0;pointerEvents=1;fontSize=16;align=left;" parent="ajDolaFg_bnpmEUSDBXx-33" vertex="1">
          <mxGeometry x="759" width="251" height="44" as="geometry">
            <mxRectangle width="251" height="44" as="alternateBounds" />
          </mxGeometry>
        </mxCell>
        <mxCell id="ajDolaFg_bnpmEUSDBXx-63" value="Assets assigned to Doe, John" style="text;strokeColor=none;fillColor=none;html=1;fontSize=24;fontStyle=1;verticalAlign=middle;align=left;" parent="1" vertex="1">
          <mxGeometry x="30" y="50" width="100" height="40" as="geometry" />
        </mxCell>
      </root>
    </mxGraphModel>
  </diagram>
</mxfile>
